<svg width="574" height="227" viewBox="0 0 574 227" fill="none" xmlns="http://www.w3.org/2000/svg">
<path d="M482.709 219.718C483.098 219.327 483.097 218.694 482.706 218.304L476.328 211.954C475.937 211.564 475.304 211.565 474.914 211.957C474.524 212.348 474.526 212.981 474.917 213.371L480.586 219.016L474.941 224.684C474.551 225.076 474.553 225.709 474.944 226.099C475.335 226.488 475.968 226.487 476.358 226.096L482.709 219.718ZM14.0021 221L482.002 220.013L481.998 218.013L13.9979 219L14.0021 221Z" fill="black"/>
<path d="M14.7071 24.2929C14.3166 23.9024 13.6834 23.9024 13.2929 24.2929L6.92892 30.6569C6.5384 31.0474 6.5384 31.6805 6.92892 32.0711C7.31945 32.4616 7.95261 32.4616 8.34314 32.0711L14 26.4142L19.6568 32.0711C20.0474 32.4616 20.6805 32.4616 21.0711 32.0711C21.4616 31.6805 21.4616 31.0474 21.0711 30.6569L14.7071 24.2929ZM15 220L15 25L13 25L13 220L15 220Z" fill="black"/>
<path d="M14 219C16.6667 188.333 44 120.8 132 96C220 71.2 482 63 482 63" stroke="#0094FF" stroke-width="2"/>
<path d="M15 220C22.7162 188.333 58.4793 120.8 139.802 104C221.124 87.2 401.818 78.3333 482 76" stroke="#00AA63" stroke-width="2"/>
<path d="M1.05682 12V3.27273H4.00568C4.69034 3.27273 5.25 3.39631 5.68466 3.64347C6.12216 3.88778 6.44602 4.21875 6.65625 4.63636C6.86648 5.05398 6.97159 5.51989 6.97159 6.03409C6.97159 6.5483 6.86648 7.01562 6.65625 7.43608C6.44886 7.85653 6.12784 8.19176 5.69318 8.44176C5.25852 8.68892 4.7017 8.8125 4.02273 8.8125H1.90909V7.875H3.98864C4.45739 7.875 4.83381 7.79403 5.1179 7.6321C5.40199 7.47017 5.60795 7.25142 5.7358 6.97585C5.86648 6.69744 5.93182 6.38352 5.93182 6.03409C5.93182 5.68466 5.86648 5.37216 5.7358 5.09659C5.60795 4.82102 5.40057 4.60511 5.11364 4.44886C4.8267 4.28977 4.44602 4.21023 3.97159 4.21023H2.11364V12H1.05682ZM8.53764 12V5.45455H9.50923V6.44318H9.57741C9.69673 6.11932 9.91264 5.85653 10.2251 5.65483C10.5376 5.45312 10.8899 5.35227 11.282 5.35227C11.3558 5.35227 11.4482 5.35369 11.5589 5.35653C11.6697 5.35937 11.7536 5.36364 11.8104 5.36932V6.39205C11.7763 6.38352 11.6982 6.37074 11.576 6.35369C11.4567 6.33381 11.3303 6.32386 11.1967 6.32386C10.8786 6.32386 10.5945 6.39062 10.3445 6.52415C10.0973 6.65483 9.90128 6.83665 9.75639 7.0696C9.61435 7.29972 9.54332 7.5625 9.54332 7.85795V12H8.53764ZM13.0025 12V5.45455H14.0082V12H13.0025ZM13.5138 4.36364C13.3178 4.36364 13.1488 4.29688 13.0067 4.16335C12.8675 4.02983 12.7979 3.86932 12.7979 3.68182C12.7979 3.49432 12.8675 3.33381 13.0067 3.20028C13.1488 3.06676 13.3178 3 13.5138 3C13.7099 3 13.8775 3.06676 14.0167 3.20028C14.1587 3.33381 14.2298 3.49432 14.2298 3.68182C14.2298 3.86932 14.1587 4.02983 14.0167 4.16335C13.8775 4.29688 13.7099 4.36364 13.5138 4.36364ZM18.5092 12.1364C17.8956 12.1364 17.3672 11.9915 16.924 11.7017C16.4808 11.4119 16.1399 11.0128 15.9013 10.5043C15.6626 9.99574 15.5433 9.41477 15.5433 8.76136C15.5433 8.09659 15.6655 7.50994 15.9098 7.00142C16.157 6.49006 16.5007 6.09091 16.9411 5.80398C17.3842 5.5142 17.9013 5.36932 18.4922 5.36932C18.9524 5.36932 19.3672 5.45455 19.7365 5.625C20.1058 5.79545 20.4084 6.03409 20.6442 6.34091C20.88 6.64773 21.0263 7.00568 21.0831 7.41477H20.0774C20.0007 7.11648 19.8303 6.85227 19.5661 6.62216C19.3047 6.3892 18.9524 6.27273 18.5092 6.27273C18.1172 6.27273 17.7734 6.375 17.478 6.57955C17.1854 6.78125 16.9567 7.06676 16.7919 7.43608C16.63 7.80256 16.549 8.23295 16.549 8.72727C16.549 9.23295 16.6286 9.6733 16.7876 10.0483C16.9496 10.4233 17.1768 10.7145 17.4695 10.9219C17.7649 11.1293 18.1115 11.233 18.5092 11.233C18.7706 11.233 19.0078 11.1875 19.2209 11.0966C19.4339 11.0057 19.6143 10.875 19.7621 10.7045C19.9098 10.5341 20.0149 10.3295 20.0774 10.0909H21.0831C21.0263 10.4773 20.8857 10.8253 20.6612 11.1349C20.4396 11.4418 20.1456 11.6861 19.7791 11.8679C19.4155 12.0469 18.9922 12.1364 18.5092 12.1364ZM25.2976 12.1364C24.6669 12.1364 24.1229 11.9972 23.6655 11.7188C23.2109 11.4375 22.8601 11.0455 22.6129 10.5426C22.3686 10.0369 22.2464 9.44886 22.2464 8.77841C22.2464 8.10795 22.3686 7.51705 22.6129 7.00568C22.8601 6.49148 23.2038 6.09091 23.6442 5.80398C24.0874 5.5142 24.6044 5.36932 25.1953 5.36932C25.5362 5.36932 25.8729 5.42614 26.2053 5.53977C26.5376 5.65341 26.8402 5.83807 27.1129 6.09375C27.3857 6.34659 27.603 6.68182 27.7649 7.09943C27.9268 7.51705 28.0078 8.03125 28.0078 8.64205V9.06818H22.9624V8.19886H26.9851C26.9851 7.82955 26.9112 7.5 26.7635 7.21023C26.6186 6.92045 26.4112 6.69176 26.1413 6.52415C25.8743 6.35653 25.5589 6.27273 25.1953 6.27273C24.7947 6.27273 24.4482 6.37216 24.1555 6.57102C23.8658 6.76705 23.6428 7.02273 23.4865 7.33807C23.3303 7.65341 23.2521 7.99148 23.2521 8.35227V8.93182C23.2521 9.42614 23.3374 9.84517 23.5078 10.1889C23.6811 10.5298 23.9212 10.7898 24.228 10.9688C24.5348 11.1449 24.8913 11.233 25.2976 11.233C25.5618 11.233 25.8004 11.196 26.0135 11.1222C26.2294 11.0455 26.4155 10.9318 26.5717 10.7812C26.728 10.6278 26.8487 10.4375 26.9339 10.2102L27.9055 10.483C27.8033 10.8125 27.6314 11.1023 27.3899 11.3523C27.1484 11.5994 26.8501 11.7926 26.495 11.9318C26.1399 12.0682 25.7408 12.1364 25.2976 12.1364Z" fill="black"/>
<path d="M494.233 224V213.818H495.466V218.869H495.585L500.159 213.818H501.77L497.494 218.412L501.77 224H500.278L496.739 219.267L495.466 220.699V224H494.233ZM505.848 224.159C505.112 224.159 504.477 223.997 503.944 223.672C503.413 223.344 503.004 222.886 502.716 222.3C502.431 221.71 502.288 221.024 502.288 220.241C502.288 219.459 502.431 218.77 502.716 218.173C503.004 217.573 503.405 217.106 503.919 216.771C504.436 216.433 505.039 216.264 505.729 216.264C506.126 216.264 506.519 216.33 506.907 216.463C507.295 216.596 507.648 216.811 507.966 217.109C508.284 217.404 508.537 217.795 508.726 218.283C508.915 218.77 509.01 219.37 509.01 220.082V220.58H503.123V219.565H507.817C507.817 219.134 507.73 218.75 507.558 218.412C507.389 218.074 507.147 217.807 506.832 217.612C506.521 217.416 506.153 217.318 505.729 217.318C505.261 217.318 504.857 217.434 504.515 217.666C504.177 217.895 503.917 218.193 503.735 218.561C503.553 218.929 503.461 219.323 503.461 219.744V220.42C503.461 220.997 503.561 221.486 503.76 221.887C503.962 222.285 504.242 222.588 504.6 222.797C504.958 223.002 505.374 223.105 505.848 223.105C506.156 223.105 506.434 223.062 506.683 222.976C506.935 222.886 507.152 222.754 507.334 222.578C507.517 222.399 507.657 222.177 507.757 221.912L508.89 222.23C508.771 222.615 508.571 222.953 508.289 223.244C508.007 223.533 507.659 223.758 507.245 223.92C506.831 224.08 506.365 224.159 505.848 224.159ZM511.318 226.864C511.119 226.864 510.942 226.847 510.786 226.814C510.63 226.784 510.522 226.754 510.463 226.724L510.761 225.69C511.046 225.763 511.298 225.79 511.517 225.77C511.735 225.75 511.929 225.652 512.098 225.477C512.271 225.304 512.428 225.024 512.571 224.636L512.789 224.04L509.966 216.364H511.238L513.346 222.449H513.426L515.534 216.364H516.806L513.565 225.114C513.419 225.508 513.239 225.835 513.023 226.093C512.808 226.355 512.557 226.549 512.272 226.675C511.991 226.801 511.672 226.864 511.318 226.864ZM523.764 218.074L522.71 218.372C522.644 218.196 522.546 218.026 522.417 217.86C522.291 217.691 522.119 217.552 521.9 217.442C521.681 217.333 521.401 217.278 521.06 217.278C520.592 217.278 520.203 217.386 519.891 217.602C519.583 217.814 519.429 218.084 519.429 218.412C519.429 218.704 519.535 218.934 519.747 219.103C519.959 219.272 520.291 219.413 520.741 219.526L521.875 219.804C522.558 219.97 523.067 220.223 523.401 220.565C523.736 220.903 523.903 221.339 523.903 221.872C523.903 222.31 523.777 222.701 523.526 223.045C523.277 223.39 522.929 223.662 522.482 223.861C522.034 224.06 521.514 224.159 520.92 224.159C520.142 224.159 519.497 223.99 518.987 223.652C518.476 223.314 518.153 222.82 518.017 222.17L519.131 221.892C519.237 222.303 519.437 222.611 519.732 222.817C520.031 223.022 520.42 223.125 520.901 223.125C521.447 223.125 521.882 223.009 522.203 222.777C522.528 222.542 522.69 222.26 522.69 221.932C522.69 221.667 522.598 221.445 522.412 221.266C522.226 221.083 521.941 220.947 521.557 220.858L520.284 220.56C519.585 220.394 519.071 220.137 518.743 219.789C518.418 219.438 518.256 218.999 518.256 218.472C518.256 218.041 518.377 217.66 518.619 217.328C518.864 216.997 519.197 216.737 519.618 216.548C520.042 216.359 520.523 216.264 521.06 216.264C521.815 216.264 522.409 216.43 522.839 216.761C523.274 217.093 523.582 217.53 523.764 218.074ZM535.334 216.364C535.275 215.86 535.033 215.469 534.608 215.19C534.184 214.912 533.664 214.773 533.047 214.773C532.597 214.773 532.202 214.846 531.864 214.991C531.529 215.137 531.268 215.338 531.079 215.593C530.893 215.848 530.8 216.138 530.8 216.463C530.8 216.735 530.865 216.969 530.994 217.164C531.127 217.356 531.296 217.517 531.501 217.646C531.707 217.772 531.922 217.877 532.148 217.96C532.373 218.039 532.58 218.104 532.769 218.153L533.803 218.432C534.068 218.501 534.363 218.598 534.688 218.72C535.016 218.843 535.329 219.01 535.628 219.222C535.929 219.431 536.178 219.7 536.373 220.028C536.569 220.356 536.667 220.759 536.667 221.236C536.667 221.786 536.523 222.283 536.234 222.727C535.949 223.171 535.532 223.524 534.981 223.786C534.434 224.048 533.77 224.179 532.988 224.179C532.259 224.179 531.627 224.061 531.094 223.826C530.563 223.591 530.146 223.263 529.841 222.842C529.539 222.421 529.368 221.932 529.329 221.375H530.601C530.635 221.759 530.764 222.078 530.989 222.33C531.218 222.578 531.506 222.764 531.854 222.886C532.206 223.006 532.583 223.065 532.988 223.065C533.458 223.065 533.881 222.989 534.256 222.837C534.63 222.681 534.927 222.465 535.145 222.19C535.364 221.912 535.474 221.587 535.474 221.216C535.474 220.878 535.379 220.603 535.19 220.391C535.001 220.179 534.753 220.006 534.444 219.874C534.136 219.741 533.803 219.625 533.445 219.526L532.192 219.168C531.397 218.939 530.767 218.612 530.303 218.188C529.839 217.764 529.607 217.209 529.607 216.523C529.607 215.953 529.761 215.455 530.069 215.031C530.381 214.604 530.799 214.272 531.322 214.037C531.849 213.798 532.438 213.679 533.087 213.679C533.743 213.679 534.327 213.797 534.837 214.032C535.348 214.264 535.752 214.582 536.05 214.987C536.352 215.391 536.511 215.85 536.528 216.364H535.334ZM543.347 220.878V216.364H544.521V224H543.347V222.707H543.268C543.089 223.095 542.81 223.425 542.433 223.697C542.055 223.965 541.577 224.099 541.001 224.099C540.523 224.099 540.099 223.995 539.728 223.786C539.357 223.574 539.065 223.256 538.853 222.832C538.641 222.404 538.535 221.866 538.535 221.216V216.364H539.708V221.136C539.708 221.693 539.864 222.137 540.175 222.469C540.49 222.8 540.891 222.966 541.379 222.966C541.67 222.966 541.967 222.891 542.268 222.742C542.573 222.593 542.829 222.364 543.034 222.056C543.243 221.748 543.347 221.355 543.347 220.878ZM546.67 226.864V216.364H547.803V217.577H547.942C548.028 217.444 548.148 217.275 548.3 217.07C548.456 216.861 548.678 216.675 548.966 216.513C549.258 216.347 549.653 216.264 550.15 216.264C550.793 216.264 551.359 216.425 551.85 216.746C552.34 217.068 552.723 217.524 552.998 218.114C553.273 218.704 553.411 219.4 553.411 220.202C553.411 221.01 553.273 221.711 552.998 222.305C552.723 222.895 552.342 223.352 551.855 223.677C551.368 223.998 550.806 224.159 550.17 224.159C549.679 224.159 549.286 224.078 548.991 223.915C548.696 223.75 548.469 223.562 548.31 223.354C548.151 223.142 548.028 222.966 547.942 222.827H547.843V226.864H546.67ZM547.823 220.182C547.823 220.759 547.907 221.267 548.077 221.708C548.246 222.146 548.492 222.489 548.817 222.737C549.142 222.982 549.54 223.105 550.01 223.105C550.501 223.105 550.91 222.976 551.238 222.717C551.57 222.455 551.818 222.104 551.984 221.663C552.153 221.219 552.238 220.725 552.238 220.182C552.238 219.645 552.155 219.161 551.989 218.73C551.827 218.296 551.58 217.953 551.248 217.701C550.92 217.446 550.508 217.318 550.01 217.318C549.533 217.318 549.132 217.439 548.807 217.681C548.483 217.92 548.237 218.254 548.072 218.685C547.906 219.113 547.823 219.612 547.823 220.182ZM555.201 226.864V216.364H556.334V217.577H556.474C556.56 217.444 556.679 217.275 556.831 217.07C556.987 216.861 557.209 216.675 557.498 216.513C557.789 216.347 558.184 216.264 558.681 216.264C559.324 216.264 559.891 216.425 560.381 216.746C560.872 217.068 561.255 217.524 561.53 218.114C561.805 218.704 561.942 219.4 561.942 220.202C561.942 221.01 561.805 221.711 561.53 222.305C561.255 222.895 560.873 223.352 560.386 223.677C559.899 223.998 559.337 224.159 558.701 224.159C558.21 224.159 557.818 224.078 557.523 223.915C557.228 223.75 557.001 223.562 556.841 223.354C556.682 223.142 556.56 222.966 556.474 222.827H556.374V226.864H555.201ZM556.354 220.182C556.354 220.759 556.439 221.267 556.608 221.708C556.777 222.146 557.024 222.489 557.349 222.737C557.673 222.982 558.071 223.105 558.542 223.105C559.032 223.105 559.442 222.976 559.77 222.717C560.101 222.455 560.35 222.104 560.515 221.663C560.684 221.219 560.769 220.725 560.769 220.182C560.769 219.645 560.686 219.161 560.52 218.73C560.358 218.296 560.111 217.953 559.78 217.701C559.452 217.446 559.039 217.318 558.542 217.318C558.064 217.318 557.663 217.439 557.339 217.681C557.014 217.92 556.769 218.254 556.603 218.685C556.437 219.113 556.354 219.612 556.354 220.182ZM564.905 213.818V224H563.732V213.818H564.905ZM567.81 226.864C567.611 226.864 567.434 226.847 567.278 226.814C567.122 226.784 567.015 226.754 566.955 226.724L567.253 225.69C567.538 225.763 567.79 225.79 568.009 225.77C568.228 225.75 568.422 225.652 568.591 225.477C568.763 225.304 568.92 225.024 569.063 224.636L569.282 224.04L566.458 216.364H567.73L569.838 222.449H569.918L572.026 216.364H573.299L570.057 225.114C569.911 225.508 569.731 225.835 569.515 226.093C569.3 226.355 569.05 226.549 568.765 226.675C568.483 226.801 568.165 226.864 567.81 226.864Z" fill="black"/>
<path d="M495.057 63V54.2727H498.108C498.716 54.2727 499.217 54.3778 499.612 54.5881C500.007 54.7955 500.301 55.0753 500.494 55.4276C500.688 55.777 500.784 56.1648 500.784 56.5909C500.784 56.9659 500.717 57.2756 500.584 57.5199C500.453 57.7642 500.28 57.9574 500.064 58.0994C499.851 58.2415 499.619 58.3466 499.369 58.4148V58.5C499.636 58.517 499.905 58.6108 500.175 58.7812C500.445 58.9517 500.67 59.196 500.852 59.5142C501.034 59.8324 501.125 60.2216 501.125 60.6818C501.125 61.1193 501.026 61.5128 500.827 61.8622C500.628 62.2116 500.314 62.4886 499.885 62.6932C499.456 62.8977 498.898 63 498.21 63H495.057ZM496.114 62.0625H498.21C498.901 62.0625 499.391 61.929 499.68 61.6619C499.973 61.392 500.119 61.0653 500.119 60.6818C500.119 60.3864 500.044 60.1136 499.893 59.8636C499.743 59.6108 499.528 59.4091 499.25 59.2585C498.972 59.1051 498.642 59.0284 498.261 59.0284H496.114V62.0625ZM496.114 58.108H498.074C498.392 58.108 498.679 58.0455 498.935 57.9205C499.193 57.7955 499.398 57.6193 499.548 57.392C499.702 57.1648 499.778 56.8977 499.778 56.5909C499.778 56.2074 499.645 55.8821 499.378 55.6151C499.111 55.3452 498.688 55.2102 498.108 55.2102H496.114V58.108ZM506.85 60.3239V56.4545H507.856V63H506.85V61.892H506.782C506.629 62.2244 506.39 62.5071 506.066 62.7401C505.742 62.9702 505.333 63.0852 504.839 63.0852C504.43 63.0852 504.066 62.9957 503.748 62.8168C503.43 62.6349 503.18 62.3622 502.998 61.9986C502.816 61.6321 502.725 61.1705 502.725 60.6136V56.4545H503.731V60.5455C503.731 61.0227 503.864 61.4034 504.131 61.6875C504.401 61.9716 504.745 62.1136 505.163 62.1136C505.413 62.1136 505.667 62.0497 505.925 61.9219C506.187 61.794 506.406 61.598 506.582 61.3338C506.761 61.0696 506.85 60.733 506.85 60.3239ZM510.346 65.4545C510.175 65.4545 510.023 65.4403 509.89 65.4119C509.756 65.3864 509.664 65.3608 509.613 65.3352L509.868 64.4489C510.113 64.5114 510.328 64.5341 510.516 64.517C510.703 64.5 510.87 64.4162 511.015 64.2656C511.162 64.1179 511.297 63.8778 511.419 63.5455L511.607 63.0341L509.186 56.4545H510.277L512.084 61.6705H512.152L513.959 56.4545H515.05L512.272 63.9545C512.147 64.2926 511.992 64.5724 511.807 64.794C511.623 65.0185 511.408 65.1847 511.164 65.2926C510.922 65.4006 510.65 65.4545 510.346 65.4545ZM519.752 65.4545V56.4545H520.724V57.4943H520.843C520.917 57.3807 521.02 57.2358 521.15 57.0597C521.284 56.8807 521.474 56.7216 521.721 56.5824C521.971 56.4403 522.309 56.3693 522.735 56.3693C523.287 56.3693 523.772 56.5071 524.193 56.7827C524.613 57.0582 524.941 57.4489 525.177 57.9545C525.413 58.4602 525.531 59.0568 525.531 59.7443C525.531 60.4375 525.413 61.0384 525.177 61.5469C524.941 62.0526 524.615 62.4446 524.197 62.723C523.779 62.9986 523.298 63.1364 522.752 63.1364C522.332 63.1364 521.995 63.0668 521.743 62.9276C521.49 62.7855 521.295 62.625 521.159 62.446C521.022 62.2642 520.917 62.1136 520.843 61.9943H520.758V65.4545H519.752ZM520.741 59.7273C520.741 60.2216 520.814 60.6577 520.958 61.0355C521.103 61.4105 521.315 61.7045 521.593 61.9176C521.872 62.1278 522.213 62.233 522.616 62.233C523.037 62.233 523.387 62.1222 523.669 61.9006C523.953 61.6761 524.166 61.375 524.308 60.9972C524.453 60.6165 524.525 60.1932 524.525 59.7273C524.525 59.267 524.454 58.8523 524.312 58.483C524.173 58.1108 523.961 57.8168 523.677 57.6009C523.396 57.3821 523.042 57.2727 522.616 57.2727C522.207 57.2727 521.863 57.3764 521.585 57.5838C521.306 57.7884 521.096 58.0753 520.954 58.4446C520.812 58.8111 520.741 59.2386 520.741 59.7273ZM527.065 63V56.4545H528.037V57.4432H528.105C528.224 57.1193 528.44 56.8565 528.752 56.6548C529.065 56.4531 529.417 56.3523 529.809 56.3523C529.883 56.3523 529.975 56.3537 530.086 56.3565C530.197 56.3594 530.281 56.3636 530.338 56.3693V57.392C530.304 57.3835 530.225 57.3707 530.103 57.3537C529.984 57.3338 529.858 57.3239 529.724 57.3239C529.406 57.3239 529.122 57.3906 528.872 57.5241C528.625 57.6548 528.429 57.8366 528.284 58.0696C528.142 58.2997 528.071 58.5625 528.071 58.858V63H527.065ZM531.53 63V56.4545H532.536V63H531.53ZM532.041 55.3636C531.845 55.3636 531.676 55.2969 531.534 55.1634C531.395 55.0298 531.325 54.8693 531.325 54.6818C531.325 54.4943 531.395 54.3338 531.534 54.2003C531.676 54.0668 531.845 54 532.041 54C532.237 54 532.405 54.0668 532.544 54.2003C532.686 54.3338 532.757 54.4943 532.757 54.6818C532.757 54.8693 532.686 55.0298 532.544 55.1634C532.405 55.2969 532.237 55.3636 532.041 55.3636ZM537.037 63.1364C536.423 63.1364 535.895 62.9915 535.451 62.7017C535.008 62.4119 534.667 62.0128 534.429 61.5043C534.19 60.9957 534.071 60.4148 534.071 59.7614C534.071 59.0966 534.193 58.5099 534.437 58.0014C534.684 57.4901 535.028 57.0909 535.468 56.804C535.912 56.5142 536.429 56.3693 537.02 56.3693C537.48 56.3693 537.895 56.4545 538.264 56.625C538.633 56.7955 538.936 57.0341 539.172 57.3409C539.407 57.6477 539.554 58.0057 539.61 58.4148H538.605C538.528 58.1165 538.358 57.8523 538.093 57.6222C537.832 57.3892 537.48 57.2727 537.037 57.2727C536.645 57.2727 536.301 57.375 536.005 57.5795C535.713 57.7812 535.484 58.0668 535.319 58.4361C535.157 58.8026 535.076 59.233 535.076 59.7273C535.076 60.233 535.156 60.6733 535.315 61.0483C535.477 61.4233 535.704 61.7145 535.997 61.9219C536.292 62.1293 536.639 62.233 537.037 62.233C537.298 62.233 537.535 62.1875 537.748 62.0966C537.961 62.0057 538.142 61.875 538.289 61.7045C538.437 61.5341 538.542 61.3295 538.605 61.0909H539.61C539.554 61.4773 539.413 61.8253 539.189 62.1349C538.967 62.4418 538.673 62.6861 538.306 62.8679C537.943 63.0469 537.52 63.1364 537.037 63.1364ZM543.825 63.1364C543.194 63.1364 542.65 62.9972 542.193 62.7188C541.738 62.4375 541.387 62.0455 541.14 61.5426C540.896 61.0369 540.774 60.4489 540.774 59.7784C540.774 59.108 540.896 58.517 541.14 58.0057C541.387 57.4915 541.731 57.0909 542.172 56.804C542.615 56.5142 543.132 56.3693 543.723 56.3693C544.064 56.3693 544.4 56.4261 544.733 56.5398C545.065 56.6534 545.368 56.8381 545.64 57.0938C545.913 57.3466 546.13 57.6818 546.292 58.0994C546.454 58.517 546.535 59.0312 546.535 59.642V60.0682H541.49V59.1989H545.512C545.512 58.8295 545.439 58.5 545.291 58.2102C545.146 57.9205 544.939 57.6918 544.669 57.5241C544.402 57.3565 544.086 57.2727 543.723 57.2727C543.322 57.2727 542.975 57.3722 542.683 57.571C542.393 57.767 542.17 58.0227 542.014 58.3381C541.858 58.6534 541.779 58.9915 541.779 59.3523V59.9318C541.779 60.4261 541.865 60.8452 542.035 61.1889C542.208 61.5298 542.449 61.7898 542.755 61.9688C543.062 62.1449 543.419 62.233 543.825 62.233C544.089 62.233 544.328 62.196 544.541 62.1222C544.757 62.0455 544.943 61.9318 545.099 61.7812C545.255 61.6278 545.376 61.4375 545.461 61.2102L546.433 61.483C546.331 61.8125 546.159 62.1023 545.917 62.3523C545.676 62.5994 545.377 62.7926 545.022 62.9318C544.667 63.0682 544.268 63.1364 543.825 63.1364Z" fill="#0094FF"/>
<path d="M498.83 74.4545C498.778 74.0227 498.571 73.6875 498.207 73.4489C497.844 73.2102 497.398 73.0909 496.869 73.0909C496.483 73.0909 496.145 73.1534 495.855 73.2784C495.568 73.4034 495.344 73.5753 495.182 73.794C495.023 74.0128 494.943 74.2614 494.943 74.5398C494.943 74.7727 494.999 74.973 495.109 75.1406C495.223 75.3054 495.368 75.4432 495.544 75.554C495.72 75.6619 495.905 75.7514 496.098 75.8224C496.291 75.8906 496.469 75.946 496.631 75.9886L497.517 76.2273C497.744 76.2869 497.997 76.3693 498.276 76.4744C498.557 76.5795 498.825 76.723 499.081 76.9048C499.339 77.0838 499.553 77.3139 499.72 77.5952C499.888 77.8764 499.972 78.2216 499.972 78.6307C499.972 79.1023 499.848 79.5284 499.601 79.9091C499.357 80.2898 498.999 80.5923 498.527 80.8168C498.058 81.0412 497.489 81.1534 496.818 81.1534C496.193 81.1534 495.652 81.0526 495.195 80.8509C494.74 80.6491 494.382 80.3679 494.121 80.0071C493.862 79.6463 493.716 79.2273 493.682 78.75H494.773C494.801 79.0795 494.912 79.3523 495.105 79.5682C495.301 79.7812 495.548 79.9403 495.847 80.0455C496.148 80.1477 496.472 80.1989 496.818 80.1989C497.222 80.1989 497.584 80.1335 497.905 80.0028C498.226 79.8693 498.48 79.6847 498.668 79.4489C498.855 79.2102 498.949 78.9318 498.949 78.6136C498.949 78.3239 498.868 78.0881 498.706 77.9062C498.544 77.7244 498.331 77.5767 498.067 77.4631C497.803 77.3494 497.517 77.25 497.21 77.1648L496.136 76.858C495.455 76.6619 494.915 76.3821 494.517 76.0185C494.119 75.6548 493.92 75.179 493.92 74.5909C493.92 74.1023 494.053 73.6761 494.317 73.3125C494.584 72.946 494.942 72.6619 495.391 72.4602C495.842 72.2557 496.347 72.1534 496.903 72.1534C497.466 72.1534 497.966 72.2543 498.403 72.456C498.841 72.6548 499.188 72.9276 499.443 73.2741C499.702 73.6207 499.838 74.0142 499.852 74.4545H498.83ZM504.317 81.1364C503.686 81.1364 503.142 80.9972 502.685 80.7188C502.23 80.4375 501.88 80.0455 501.632 79.5426C501.388 79.0369 501.266 78.4489 501.266 77.7784C501.266 77.108 501.388 76.517 501.632 76.0057C501.88 75.4915 502.223 75.0909 502.664 74.804C503.107 74.5142 503.624 74.3693 504.215 74.3693C504.556 74.3693 504.892 74.4261 505.225 74.5398C505.557 74.6534 505.86 74.8381 506.132 75.0938C506.405 75.3466 506.623 75.6818 506.784 76.0994C506.946 76.517 507.027 77.0312 507.027 77.642V78.0682H501.982V77.1989H506.005C506.005 76.8295 505.931 76.5 505.783 76.2102C505.638 75.9205 505.431 75.6918 505.161 75.5241C504.894 75.3565 504.578 75.2727 504.215 75.2727C503.814 75.2727 503.468 75.3722 503.175 75.571C502.885 75.767 502.662 76.0227 502.506 76.3381C502.35 76.6534 502.272 76.9915 502.272 77.3523V77.9318C502.272 78.4261 502.357 78.8452 502.527 79.1889C502.701 79.5298 502.941 79.7898 503.248 79.9688C503.554 80.1449 503.911 80.233 504.317 80.233C504.581 80.233 504.82 80.196 505.033 80.1222C505.249 80.0455 505.435 79.9318 505.591 79.7812C505.748 79.6278 505.868 79.4375 505.953 79.2102L506.925 79.483C506.823 79.8125 506.651 80.1023 506.409 80.3523C506.168 80.5994 505.87 80.7926 505.515 80.9318C505.159 81.0682 504.76 81.1364 504.317 81.1364ZM509.563 72.2727V81H508.557V72.2727H509.563ZM512.411 72.2727V81H511.405V72.2727H512.411ZM517.627 83.4545V74.4545H518.599V75.4943H518.718C518.792 75.3807 518.895 75.2358 519.025 75.0597C519.159 74.8807 519.349 74.7216 519.596 74.5824C519.846 74.4403 520.184 74.3693 520.61 74.3693C521.162 74.3693 521.647 74.5071 522.068 74.7827C522.488 75.0582 522.816 75.4489 523.052 75.9545C523.288 76.4602 523.406 77.0568 523.406 77.7443C523.406 78.4375 523.288 79.0384 523.052 79.5469C522.816 80.0526 522.49 80.4446 522.072 80.723C521.654 80.9986 521.173 81.1364 520.627 81.1364C520.207 81.1364 519.87 81.0668 519.618 80.9276C519.365 80.7855 519.17 80.625 519.034 80.446C518.897 80.2642 518.792 80.1136 518.718 79.9943H518.633V83.4545H517.627ZM518.616 77.7273C518.616 78.2216 518.689 78.6577 518.833 79.0355C518.978 79.4105 519.19 79.7045 519.468 79.9176C519.747 80.1278 520.088 80.233 520.491 80.233C520.912 80.233 521.262 80.1222 521.544 79.9006C521.828 79.6761 522.041 79.375 522.183 78.9972C522.328 78.6165 522.4 78.1932 522.4 77.7273C522.4 77.267 522.329 76.8523 522.187 76.483C522.048 76.1108 521.836 75.8168 521.552 75.6009C521.271 75.3821 520.917 75.2727 520.491 75.2727C520.082 75.2727 519.738 75.3764 519.46 75.5838C519.181 75.7884 518.971 76.0753 518.829 76.4446C518.687 76.8111 518.616 77.2386 518.616 77.7273ZM524.94 81V74.4545H525.912V75.4432H525.98C526.099 75.1193 526.315 74.8565 526.627 74.6548C526.94 74.4531 527.292 74.3523 527.684 74.3523C527.758 74.3523 527.85 74.3537 527.961 74.3565C528.072 74.3594 528.156 74.3636 528.213 74.3693V75.392C528.179 75.3835 528.1 75.3707 527.978 75.3537C527.859 75.3338 527.733 75.3239 527.599 75.3239C527.281 75.3239 526.997 75.3906 526.747 75.5241C526.5 75.6548 526.304 75.8366 526.159 76.0696C526.017 76.2997 525.946 76.5625 525.946 76.858V81H524.94ZM529.405 81V74.4545H530.411V81H529.405ZM529.916 73.3636C529.72 73.3636 529.551 73.2969 529.409 73.1634C529.27 73.0298 529.2 72.8693 529.2 72.6818C529.2 72.4943 529.27 72.3338 529.409 72.2003C529.551 72.0668 529.72 72 529.916 72C530.112 72 530.28 72.0668 530.419 72.2003C530.561 72.3338 530.632 72.4943 530.632 72.6818C530.632 72.8693 530.561 73.0298 530.419 73.1634C530.28 73.2969 530.112 73.3636 529.916 73.3636ZM534.912 81.1364C534.298 81.1364 533.77 80.9915 533.326 80.7017C532.883 80.4119 532.542 80.0128 532.304 79.5043C532.065 78.9957 531.946 78.4148 531.946 77.7614C531.946 77.0966 532.068 76.5099 532.312 76.0014C532.559 75.4901 532.903 75.0909 533.343 74.804C533.787 74.5142 534.304 74.3693 534.895 74.3693C535.355 74.3693 535.77 74.4545 536.139 74.625C536.508 74.7955 536.811 75.0341 537.047 75.3409C537.282 75.6477 537.429 76.0057 537.485 76.4148H536.48C536.403 76.1165 536.233 75.8523 535.968 75.6222C535.707 75.3892 535.355 75.2727 534.912 75.2727C534.52 75.2727 534.176 75.375 533.88 75.5795C533.588 75.7812 533.359 76.0668 533.194 76.4361C533.032 76.8026 532.951 77.233 532.951 77.7273C532.951 78.233 533.031 78.6733 533.19 79.0483C533.352 79.4233 533.579 79.7145 533.872 79.9219C534.167 80.1293 534.514 80.233 534.912 80.233C535.173 80.233 535.41 80.1875 535.623 80.0966C535.836 80.0057 536.017 79.875 536.164 79.7045C536.312 79.5341 536.417 79.3295 536.48 79.0909H537.485C537.429 79.4773 537.288 79.8253 537.064 80.1349C536.842 80.4418 536.548 80.6861 536.181 80.8679C535.818 81.0469 535.395 81.1364 534.912 81.1364ZM541.7 81.1364C541.069 81.1364 540.525 80.9972 540.068 80.7188C539.613 80.4375 539.262 80.0455 539.015 79.5426C538.771 79.0369 538.649 78.4489 538.649 77.7784C538.649 77.108 538.771 76.517 539.015 76.0057C539.262 75.4915 539.606 75.0909 540.047 74.804C540.49 74.5142 541.007 74.3693 541.598 74.3693C541.939 74.3693 542.275 74.4261 542.608 74.5398C542.94 74.6534 543.243 74.8381 543.515 75.0938C543.788 75.3466 544.005 75.6818 544.167 76.0994C544.329 76.517 544.41 77.0312 544.41 77.642V78.0682H539.365V77.1989H543.387C543.387 76.8295 543.314 76.5 543.166 76.2102C543.021 75.9205 542.814 75.6918 542.544 75.5241C542.277 75.3565 541.961 75.2727 541.598 75.2727C541.197 75.2727 540.85 75.3722 540.558 75.571C540.268 75.767 540.045 76.0227 539.889 76.3381C539.733 76.6534 539.654 76.9915 539.654 77.3523V77.9318C539.654 78.4261 539.74 78.8452 539.91 79.1889C540.083 79.5298 540.324 79.7898 540.63 79.9688C540.937 80.1449 541.294 80.233 541.7 80.233C541.964 80.233 542.203 80.196 542.416 80.1222C542.632 80.0455 542.818 79.9318 542.974 79.7812C543.13 79.6278 543.251 79.4375 543.336 79.2102L544.308 79.483C544.206 79.8125 544.034 80.1023 543.792 80.3523C543.551 80.5994 543.252 80.7926 542.897 80.9318C542.542 81.0682 542.143 81.1364 541.7 81.1364Z" fill="#00AA63"/>
<path d="M128.057 56V47.2727H131.006C131.69 47.2727 132.25 47.3963 132.685 47.6435C133.122 47.8878 133.446 48.2188 133.656 48.6364C133.866 49.054 133.972 49.5199 133.972 50.0341C133.972 50.5483 133.866 51.0156 133.656 51.4361C133.449 51.8565 133.128 52.1918 132.693 52.4418C132.259 52.6889 131.702 52.8125 131.023 52.8125H128.909V51.875H130.989C131.457 51.875 131.834 51.794 132.118 51.6321C132.402 51.4702 132.608 51.2514 132.736 50.9759C132.866 50.6974 132.932 50.3835 132.932 50.0341C132.932 49.6847 132.866 49.3722 132.736 49.0966C132.608 48.821 132.401 48.6051 132.114 48.4489C131.827 48.2898 131.446 48.2102 130.972 48.2102H129.114V56H128.057ZM135.538 56V49.4545H136.509V50.4432H136.577C136.697 50.1193 136.913 49.8565 137.225 49.6548C137.538 49.4531 137.89 49.3523 138.282 49.3523C138.356 49.3523 138.448 49.3537 138.559 49.3565C138.67 49.3594 138.754 49.3636 138.81 49.3693V50.392C138.776 50.3835 138.698 50.3707 138.576 50.3537C138.457 50.3338 138.33 50.3239 138.197 50.3239C137.879 50.3239 137.594 50.3906 137.344 50.5241C137.097 50.6548 136.901 50.8366 136.756 51.0696C136.614 51.2997 136.543 51.5625 136.543 51.858V56H135.538ZM140.002 56V49.4545H141.008V56H140.002ZM140.514 48.3636C140.318 48.3636 140.149 48.2969 140.007 48.1634C139.868 48.0298 139.798 47.8693 139.798 47.6818C139.798 47.4943 139.868 47.3338 140.007 47.2003C140.149 47.0668 140.318 47 140.514 47C140.71 47 140.877 47.0668 141.017 47.2003C141.159 47.3338 141.23 47.4943 141.23 47.6818C141.23 47.8693 141.159 48.0298 141.017 48.1634C140.877 48.2969 140.71 48.3636 140.514 48.3636ZM145.509 56.1364C144.896 56.1364 144.367 55.9915 143.924 55.7017C143.481 55.4119 143.14 55.0128 142.901 54.5043C142.663 53.9957 142.543 53.4148 142.543 52.7614C142.543 52.0966 142.665 51.5099 142.91 51.0014C143.157 50.4901 143.501 50.0909 143.941 49.804C144.384 49.5142 144.901 49.3693 145.492 49.3693C145.952 49.3693 146.367 49.4545 146.737 49.625C147.106 49.7955 147.408 50.0341 147.644 50.3409C147.88 50.6477 148.026 51.0057 148.083 51.4148H147.077C147.001 51.1165 146.83 50.8523 146.566 50.6222C146.305 50.3892 145.952 50.2727 145.509 50.2727C145.117 50.2727 144.773 50.375 144.478 50.5795C144.185 50.7812 143.957 51.0668 143.792 51.4361C143.63 51.8026 143.549 52.233 143.549 52.7273C143.549 53.233 143.629 53.6733 143.788 54.0483C143.95 54.4233 144.177 54.7145 144.469 54.9219C144.765 55.1293 145.112 55.233 145.509 55.233C145.771 55.233 146.008 55.1875 146.221 55.0966C146.434 55.0057 146.614 54.875 146.762 54.7045C146.91 54.5341 147.015 54.3295 147.077 54.0909H148.083C148.026 54.4773 147.886 54.8253 147.661 55.1349C147.44 55.4418 147.146 55.6861 146.779 55.8679C146.415 56.0469 145.992 56.1364 145.509 56.1364ZM152.298 56.1364C151.667 56.1364 151.123 55.9972 150.665 55.7188C150.211 55.4375 149.86 55.0455 149.613 54.5426C149.369 54.0369 149.246 53.4489 149.246 52.7784C149.246 52.108 149.369 51.517 149.613 51.0057C149.86 50.4915 150.204 50.0909 150.644 49.804C151.087 49.5142 151.604 49.3693 152.195 49.3693C152.536 49.3693 152.873 49.4261 153.205 49.5398C153.538 49.6534 153.84 49.8381 154.113 50.0938C154.386 50.3466 154.603 50.6818 154.765 51.0994C154.927 51.517 155.008 52.0312 155.008 52.642V53.0682H149.962V52.1989H153.985C153.985 51.8295 153.911 51.5 153.763 51.2102C153.619 50.9205 153.411 50.6918 153.141 50.5241C152.874 50.3565 152.559 50.2727 152.195 50.2727C151.795 50.2727 151.448 50.3722 151.156 50.571C150.866 50.767 150.643 51.0227 150.487 51.3381C150.33 51.6534 150.252 51.9915 150.252 52.3523V52.9318C150.252 53.4261 150.337 53.8452 150.508 54.1889C150.681 54.5298 150.921 54.7898 151.228 54.9688C151.535 55.1449 151.891 55.233 152.298 55.233C152.562 55.233 152.8 55.196 153.013 55.1222C153.229 55.0455 153.415 54.9318 153.572 54.7812C153.728 54.6278 153.849 54.4375 153.934 54.2102L154.906 54.483C154.803 54.8125 154.631 55.1023 154.39 55.3523C154.148 55.5994 153.85 55.7926 153.495 55.9318C153.14 56.0682 152.741 56.1364 152.298 56.1364ZM156.896 52.3182C156.896 51.2443 157.035 50.2571 157.313 49.3565C157.594 48.4531 157.995 47.6222 158.515 46.8636H159.401C159.197 47.1449 159.005 47.4915 158.826 47.9034C158.65 48.3125 158.495 48.7628 158.362 49.2543C158.228 49.7429 158.123 50.2486 158.046 50.7713C157.972 51.294 157.935 51.8097 157.935 52.3182C157.935 52.9943 158.001 53.6804 158.131 54.3764C158.262 55.0724 158.438 55.7187 158.66 56.3153C158.881 56.9119 159.129 57.3977 159.401 57.7727H158.515C157.995 57.0142 157.594 56.1847 157.313 55.2841C157.035 54.3807 156.896 53.392 156.896 52.3182ZM161.635 49.4545L163.203 52.1307L164.772 49.4545H165.931L163.817 52.7273L165.931 56H164.772L163.203 53.4602L161.635 56H160.476L162.556 52.7273L160.476 49.4545H161.635ZM169.513 52.3182C169.513 53.392 169.373 54.3807 169.092 55.2841C168.813 56.1847 168.414 57.0142 167.894 57.7727H167.008C167.212 57.4915 167.403 57.1449 167.579 56.733C167.758 56.3239 167.914 55.875 168.048 55.3864C168.181 54.8949 168.285 54.3878 168.359 53.8651C168.435 53.3395 168.474 52.8239 168.474 52.3182C168.474 51.642 168.408 50.956 168.278 50.2599C168.147 49.5639 167.971 48.9176 167.749 48.321C167.528 47.7244 167.281 47.2386 167.008 46.8636H167.894C168.414 47.6222 168.813 48.4531 169.092 49.3565C169.373 50.2571 169.513 51.2443 169.513 52.3182ZM172.123 51.7898V50.8693H177.373V51.7898H172.123ZM172.123 54.3125V53.392H177.373V54.3125H172.123ZM185.828 56.1193C185.186 56.1193 184.639 55.9446 184.188 55.5952C183.736 55.2429 183.391 54.733 183.152 54.0653C182.913 53.3949 182.794 52.5852 182.794 51.6364C182.794 50.6932 182.913 49.8878 183.152 49.2202C183.393 48.5497 183.74 48.0384 184.192 47.6861C184.646 47.331 185.192 47.1534 185.828 47.1534C186.464 47.1534 187.009 47.331 187.46 47.6861C187.915 48.0384 188.261 48.5497 188.5 49.2202C188.741 49.8878 188.862 50.6932 188.862 51.6364C188.862 52.5852 188.743 53.3949 188.504 54.0653C188.266 54.733 187.92 55.2429 187.469 55.5952C187.017 55.9446 186.47 56.1193 185.828 56.1193ZM185.828 55.1818C186.464 55.1818 186.959 54.875 187.311 54.2614C187.663 53.6477 187.839 52.7727 187.839 51.6364C187.839 50.8807 187.759 50.2372 187.597 49.706C187.438 49.1747 187.207 48.7699 186.906 48.4915C186.608 48.2131 186.249 48.0739 185.828 48.0739C185.197 48.0739 184.705 48.3849 184.349 49.0071C183.994 49.6264 183.817 50.5028 183.817 51.6364C183.817 52.392 183.896 53.0341 184.055 53.5625C184.214 54.0909 184.443 54.4929 184.741 54.7685C185.043 55.044 185.405 55.1818 185.828 55.1818ZM190.927 56.0682C190.717 56.0682 190.536 55.9929 190.386 55.8423C190.235 55.6918 190.16 55.5114 190.16 55.3011C190.16 55.0909 190.235 54.9105 190.386 54.7599C190.536 54.6094 190.717 54.5341 190.927 54.5341C191.137 54.5341 191.317 54.6094 191.468 54.7599C191.619 54.9105 191.694 55.0909 191.694 55.3011C191.694 55.4403 191.658 55.5682 191.587 55.6847C191.519 55.8011 191.427 55.8949 191.31 55.9659C191.197 56.0341 191.069 56.0682 190.927 56.0682ZM193.482 56V55.233L196.362 52.0795C196.7 51.7102 196.979 51.3892 197.197 51.1165C197.416 50.8409 197.578 50.5824 197.683 50.3409C197.791 50.0966 197.845 49.8409 197.845 49.5739C197.845 49.267 197.771 49.0014 197.624 48.777C197.479 48.5526 197.28 48.3793 197.027 48.2571C196.774 48.1349 196.49 48.0739 196.175 48.0739C195.839 48.0739 195.547 48.1435 195.297 48.2827C195.05 48.419 194.858 48.6108 194.722 48.858C194.588 49.1051 194.521 49.3949 194.521 49.7273H193.516C193.516 49.2159 193.634 48.767 193.869 48.3807C194.105 47.9943 194.426 47.6932 194.832 47.4773C195.241 47.2614 195.7 47.1534 196.209 47.1534C196.72 47.1534 197.173 47.2614 197.568 47.4773C197.963 47.6932 198.273 47.9844 198.497 48.3509C198.722 48.7173 198.834 49.125 198.834 49.5739C198.834 49.8949 198.776 50.2088 198.659 50.5156C198.545 50.8196 198.347 51.1591 198.062 51.5341C197.781 51.9062 197.391 52.3608 196.891 52.8977L194.93 54.9943V55.0625H198.987V56H193.482ZM205.81 52.1818L205.878 50.3068L204.293 51.3125L203.884 50.5966L205.554 49.7273L203.884 48.858L204.293 48.142L205.878 49.1477L205.81 47.2727H206.628L206.56 49.1477L208.145 48.142L208.554 48.858L206.884 49.7273L208.554 50.5966L208.145 51.3125L206.56 50.3068L206.628 52.1818H205.81ZM214.52 47.2727V56H213.514V47.2727H214.52ZM217.368 52.0625V56H216.362V49.4545H217.333V50.4773H217.419C217.572 50.1449 217.805 49.8778 218.118 49.6761C218.43 49.4716 218.833 49.3693 219.328 49.3693C219.771 49.3693 220.159 49.4602 220.491 49.642C220.824 49.821 221.082 50.0938 221.267 50.4602C221.451 50.8239 221.544 51.2841 221.544 51.8409V56H220.538V51.9091C220.538 51.3949 220.404 50.9943 220.137 50.7074C219.87 50.4176 219.504 50.2727 219.038 50.2727C218.717 50.2727 218.43 50.3423 218.177 50.4815C217.927 50.6207 217.73 50.8239 217.585 51.0909C217.44 51.358 217.368 51.6818 217.368 52.0625ZM223.739 52.3182C223.739 51.2443 223.879 50.2571 224.157 49.3565C224.438 48.4531 224.839 47.6222 225.359 46.8636H226.245C226.04 47.1449 225.849 47.4915 225.67 47.9034C225.494 48.3125 225.339 48.7628 225.205 49.2543C225.072 49.7429 224.967 50.2486 224.89 50.7713C224.816 51.294 224.779 51.8097 224.779 52.3182C224.779 52.9943 224.844 53.6804 224.975 54.3764C225.106 55.0724 225.282 55.7187 225.504 56.3153C225.725 56.9119 225.972 57.3977 226.245 57.7727H225.359C224.839 57.0142 224.438 56.1847 224.157 55.2841C223.879 54.3807 223.739 53.392 223.739 52.3182ZM230.559 56.1193C229.917 56.1193 229.37 55.9446 228.918 55.5952C228.466 55.2429 228.121 54.733 227.882 54.0653C227.644 53.3949 227.525 52.5852 227.525 51.6364C227.525 50.6932 227.644 49.8878 227.882 49.2202C228.124 48.5497 228.471 48.0384 228.922 47.6861C229.377 47.331 229.922 47.1534 230.559 47.1534C231.195 47.1534 231.739 47.331 232.191 47.6861C232.645 48.0384 232.992 48.5497 233.23 49.2202C233.472 49.8878 233.593 50.6932 233.593 51.6364C233.593 52.5852 233.473 53.3949 233.235 54.0653C232.996 54.733 232.651 55.2429 232.199 55.5952C231.748 55.9446 231.201 56.1193 230.559 56.1193ZM230.559 55.1818C231.195 55.1818 231.689 54.875 232.042 54.2614C232.394 53.6477 232.57 52.7727 232.57 51.6364C232.57 50.8807 232.489 50.2372 232.327 49.706C232.168 49.1747 231.938 48.7699 231.637 48.4915C231.338 48.2131 230.979 48.0739 230.559 48.0739C229.928 48.0739 229.435 48.3849 229.08 49.0071C228.725 49.6264 228.547 50.5028 228.547 51.6364C228.547 52.392 228.627 53.0341 228.786 53.5625C228.945 54.0909 229.174 54.4929 229.472 54.7685C229.773 55.044 230.135 55.1818 230.559 55.1818ZM235.657 56.0682C235.447 56.0682 235.267 55.9929 235.116 55.8423C234.966 55.6918 234.89 55.5114 234.89 55.3011C234.89 55.0909 234.966 54.9105 235.116 54.7599C235.267 54.6094 235.447 54.5341 235.657 54.5341C235.868 54.5341 236.048 54.6094 236.199 54.7599C236.349 54.9105 236.424 55.0909 236.424 55.3011C236.424 55.4403 236.389 55.5682 236.318 55.6847C236.25 55.8011 236.157 55.8949 236.041 55.9659C235.927 56.0341 235.799 56.0682 235.657 56.0682ZM240.754 56.1193C240.112 56.1193 239.565 55.9446 239.113 55.5952C238.662 55.2429 238.316 54.733 238.078 54.0653C237.839 53.3949 237.72 52.5852 237.72 51.6364C237.72 50.6932 237.839 49.8878 238.078 49.2202C238.319 48.5497 238.666 48.0384 239.118 47.6861C239.572 47.331 240.118 47.1534 240.754 47.1534C241.39 47.1534 241.934 47.331 242.386 47.6861C242.841 48.0384 243.187 48.5497 243.426 49.2202C243.667 49.8878 243.788 50.6932 243.788 51.6364C243.788 52.5852 243.669 53.3949 243.43 54.0653C243.191 54.733 242.846 55.2429 242.395 55.5952C241.943 55.9446 241.396 56.1193 240.754 56.1193ZM240.754 55.1818C241.39 55.1818 241.885 54.875 242.237 54.2614C242.589 53.6477 242.765 52.7727 242.765 51.6364C242.765 50.8807 242.684 50.2372 242.522 49.706C242.363 49.1747 242.133 48.7699 241.832 48.4915C241.534 48.2131 241.174 48.0739 240.754 48.0739C240.123 48.0739 239.63 48.3849 239.275 49.0071C238.92 49.6264 238.743 50.5028 238.743 51.6364C238.743 52.392 238.822 53.0341 238.981 53.5625C239.14 54.0909 239.369 54.4929 239.667 54.7685C239.968 55.044 240.331 55.1818 240.754 55.1818ZM248.475 47.2727V56H247.419V48.3807H247.368L245.237 49.7955V48.7216L247.419 47.2727H248.475ZM256.048 52.1818L256.116 50.3068L254.531 51.3125L254.122 50.5966L255.792 49.7273L254.122 48.858L254.531 48.142L256.116 49.1477L256.048 47.2727H256.866L256.798 49.1477L258.383 48.142L258.792 48.858L257.122 49.7273L258.792 50.5966L258.383 51.3125L256.798 50.3068L256.866 52.1818H256.048ZM264.502 49.4545L266.071 52.1307L267.639 49.4545H268.798L266.684 52.7273L268.798 56H267.639L266.071 53.4602L264.502 56H263.343L265.423 52.7273L263.343 49.4545H264.502ZM276.165 54.4659V48.8409H277.119V54.4659H276.165ZM273.83 52.1307V51.1761H279.455V52.1307H273.83ZM287.944 47.2727V56H286.887V48.3807H286.836L284.706 49.7955V48.7216L286.887 47.2727H287.944ZM292.619 51.6364C292.619 52.7102 292.478 53.6989 292.197 54.6023C291.919 55.5028 291.52 56.3324 291 57.0909H290.113C290.318 56.8097 290.508 56.4631 290.684 56.0511C290.863 55.642 291.02 55.1932 291.153 54.7045C291.287 54.2131 291.39 53.706 291.464 53.1832C291.541 52.6577 291.579 52.142 291.579 51.6364C291.579 50.9602 291.514 50.2741 291.383 49.5781C291.252 48.8821 291.076 48.2358 290.855 47.6392C290.633 47.0426 290.386 46.5568 290.113 46.1818H291C291.52 46.9403 291.919 47.7713 292.197 48.6747C292.478 49.5753 292.619 50.5625 292.619 51.6364ZM300.751 54.4659V48.8409H301.705V54.4659H300.751ZM298.415 52.1307V51.1761H304.04V52.1307H298.415ZM312.309 56.1193C311.667 56.1193 311.12 55.9446 310.668 55.5952C310.216 55.2429 309.871 54.733 309.632 54.0653C309.394 53.3949 309.275 52.5852 309.275 51.6364C309.275 50.6932 309.394 49.8878 309.632 49.2202C309.874 48.5497 310.221 48.0384 310.672 47.6861C311.127 47.331 311.672 47.1534 312.309 47.1534C312.945 47.1534 313.489 47.331 313.941 47.6861C314.395 48.0384 314.742 48.5497 314.98 49.2202C315.222 49.8878 315.343 50.6932 315.343 51.6364C315.343 52.5852 315.223 53.3949 314.985 54.0653C314.746 54.733 314.401 55.2429 313.949 55.5952C313.498 55.9446 312.951 56.1193 312.309 56.1193ZM312.309 55.1818C312.945 55.1818 313.439 54.875 313.792 54.2614C314.144 53.6477 314.32 52.7727 314.32 51.6364C314.32 50.8807 314.239 50.2372 314.077 49.706C313.918 49.1747 313.688 48.7699 313.387 48.4915C313.088 48.2131 312.729 48.0739 312.309 48.0739C311.678 48.0739 311.185 48.3849 310.83 49.0071C310.475 49.6264 310.297 50.5028 310.297 51.6364C310.297 52.392 310.377 53.0341 310.536 53.5625C310.695 54.0909 310.924 54.4929 311.222 54.7685C311.523 55.044 311.885 55.1818 312.309 55.1818ZM317.407 56.0682C317.197 56.0682 317.017 55.9929 316.866 55.8423C316.716 55.6918 316.64 55.5114 316.64 55.3011C316.64 55.0909 316.716 54.9105 316.866 54.7599C317.017 54.6094 317.197 54.5341 317.407 54.5341C317.618 54.5341 317.798 54.6094 317.949 54.7599C318.099 54.9105 318.174 55.0909 318.174 55.3011C318.174 55.4403 318.139 55.5682 318.068 55.6847C318 55.8011 317.907 55.8949 317.791 55.9659C317.677 56.0341 317.549 56.0682 317.407 56.0682ZM321.987 47.2727V56H320.93V48.3807H320.879L318.749 49.7955V48.7216L320.93 47.2727H321.987Z" fill="black"/>
</svg>
